# xmcd CD database file
#
# Track frame offsets:
#	150
#	15626
#	35207
#	55438
#	74213
#	91386
#	113709
#	131705
#	148924
#	167618
#
# Disc length: 2454 seconds
#
# Revision: 0
# Processed by: cddbd v1.5.2PL0 Copyright (c) Steve Scherf et al.
# Submitted via: Feurio! 1.68 - http://www.feurio.com
#
DISCID=9a09940a
DTITLE=ZAKOPOWER - NA SIEDEM
DYEAR=1900
DGENRE=
TTITLE0=Zakopower - NA SIEDEM
TTITLE1=Zakopower - NIE BO NIE
TTITLE2=Zakopower - CY TO TA
TTITLE3=Zakopower - GALOP
TTITLE4=Zakopower - ZBUNTOWANY ANIOL
TTITLE5=Zakopower - BRAKU STAN
TTITLE6=Zakopower - UBIJE USIEKE
TTITLE7=Zakopower - SALOMANGA
TTITLE8=Zakopower - LULI LA
TTITLE9=Zakopower - TUPANY
EXTD=
EXTT0=
EXTT1=
EXTT2=
EXTT3=
EXTT4=
EXTT5=
EXTT6=
EXTT7=
EXTT8=
EXTT9=
PLAYORDER=
